<mxfile host="app.diagrams.net" agent="Mozilla/5.0 (Windows NT 10.0; Win64; x64) AppleWebKit/537.36 (KHTML, like Gecko) Chrome/136.0.0.0 Safari/537.36" version="27.0.6">
  <diagram name="Page-1" id="LO0IbS74aVSOtTkdYeiq">
    <mxGraphModel dx="794" dy="413" grid="1" gridSize="10" guides="1" tooltips="1" connect="1" arrows="1" fold="1" page="1" pageScale="1" pageWidth="850" pageHeight="1100" math="0" shadow="0">
      <root>
        <mxCell id="0" />
        <mxCell id="1" parent="0" />
        <mxCell id="u4FmqP_CyHzq_SAG-YZG-9" value="" style="edgeStyle=orthogonalEdgeStyle;rounded=0;orthogonalLoop=1;jettySize=auto;html=1;" edge="1" parent="1" source="u4FmqP_CyHzq_SAG-YZG-1" target="u4FmqP_CyHzq_SAG-YZG-3">
          <mxGeometry relative="1" as="geometry" />
        </mxCell>
        <mxCell id="u4FmqP_CyHzq_SAG-YZG-1" value="&lt;p&gt;&lt;font face=&quot;Helvetica&quot; style=&quot;font-size: 14px;&quot;&gt;&lt;b&gt;事件触发阶段&lt;/b&gt;&lt;/font&gt;&lt;/p&gt;&lt;p&gt;&lt;font style=&quot;font-size: 14px;&quot; face=&quot;Helvetica&quot;&gt;实时捕获事件（如车辆到达、充电完成）&lt;/font&gt;&lt;/p&gt;" style="rounded=1;whiteSpace=wrap;html=1;" vertex="1" parent="1">
          <mxGeometry x="312.5" y="60" width="185" height="70" as="geometry" />
        </mxCell>
        <mxCell id="u4FmqP_CyHzq_SAG-YZG-10" value="" style="edgeStyle=orthogonalEdgeStyle;rounded=0;orthogonalLoop=1;jettySize=auto;html=1;" edge="1" parent="1" source="u4FmqP_CyHzq_SAG-YZG-3" target="u4FmqP_CyHzq_SAG-YZG-4">
          <mxGeometry relative="1" as="geometry" />
        </mxCell>
        <mxCell id="u4FmqP_CyHzq_SAG-YZG-3" value="&lt;p&gt;&lt;font face=&quot;Helvetica&quot; style=&quot;font-size: 14px;&quot;&gt;&lt;b&gt;状态更新阶段&lt;/b&gt;&lt;/font&gt;&lt;/p&gt;&lt;p&gt;&lt;span style=&quot;font-size: 14px;&quot;&gt;更新队列长度，充电桩状态等参数&lt;/span&gt;&lt;/p&gt;" style="rounded=1;whiteSpace=wrap;html=1;" vertex="1" parent="1">
          <mxGeometry x="290" y="170" width="230" height="70" as="geometry" />
        </mxCell>
        <mxCell id="u4FmqP_CyHzq_SAG-YZG-11" value="" style="edgeStyle=orthogonalEdgeStyle;rounded=0;orthogonalLoop=1;jettySize=auto;html=1;" edge="1" parent="1" source="u4FmqP_CyHzq_SAG-YZG-4" target="u4FmqP_CyHzq_SAG-YZG-5">
          <mxGeometry relative="1" as="geometry" />
        </mxCell>
        <mxCell id="u4FmqP_CyHzq_SAG-YZG-4" value="&lt;p&gt;&lt;font face=&quot;Helvetica&quot; style=&quot;font-size: 14px;&quot;&gt;&lt;b&gt;优化触发阶段&lt;/b&gt;&lt;/font&gt;&lt;/p&gt;&lt;p&gt;&lt;span style=&quot;text-align: left;&quot;&gt;&lt;font style=&quot;font-size: 14px;&quot;&gt;若事件为关键事件（如队列溢出、充电桩故障）或达到滚动窗口周期，启动优化计算&lt;/font&gt;&lt;/span&gt;&lt;/p&gt;" style="rounded=1;whiteSpace=wrap;html=1;" vertex="1" parent="1">
          <mxGeometry x="270" y="280" width="270" height="90" as="geometry" />
        </mxCell>
        <mxCell id="u4FmqP_CyHzq_SAG-YZG-12" value="" style="edgeStyle=orthogonalEdgeStyle;rounded=0;orthogonalLoop=1;jettySize=auto;html=1;" edge="1" parent="1" source="u4FmqP_CyHzq_SAG-YZG-5" target="u4FmqP_CyHzq_SAG-YZG-7">
          <mxGeometry relative="1" as="geometry" />
        </mxCell>
        <mxCell id="u4FmqP_CyHzq_SAG-YZG-5" value="&lt;p&gt;&lt;span style=&quot;font-size: 14px;&quot;&gt;检查优化条件&lt;/span&gt;&lt;/p&gt;" style="rounded=1;whiteSpace=wrap;html=1;" vertex="1" parent="1">
          <mxGeometry x="330" y="420" width="150" height="50" as="geometry" />
        </mxCell>
        <mxCell id="u4FmqP_CyHzq_SAG-YZG-6" value="状态更新阶段：&#xa;&#xa;更新队列长度、充电桩状态等参数。&#xa;&#xa;优化触发条件：&#xa;&#xa;若事件为关键事件（如队列溢出、充电桩故障）或达到滚动窗口周期，启动优化计算。&#xa;&#xa;策略计算阶段：&#xa;&#xa;基于当前状态和预测的未来事件（如预约车辆到达），求解优化模型，生成充电桩分配方案。&#xa;&#xa;指令执行阶段：&#xa;&#xa;向充电桩发送启停指令，向用户发送引导信息（如排队预计时间）。&#xa;&#xa;事件触发 → 更新系统状态 → 检查优化条件 → 执行策略计算 → 输出调度指令  &#xa;      ↑                                  ↓  &#xa;      └────── 滚动时域更新 ←──────┘" style="text;whiteSpace=wrap;html=1;" vertex="1" parent="1">
          <mxGeometry x="790" y="100" width="520" height="300" as="geometry" />
        </mxCell>
        <mxCell id="u4FmqP_CyHzq_SAG-YZG-13" value="" style="edgeStyle=orthogonalEdgeStyle;rounded=0;orthogonalLoop=1;jettySize=auto;html=1;" edge="1" parent="1" source="u4FmqP_CyHzq_SAG-YZG-7" target="u4FmqP_CyHzq_SAG-YZG-8">
          <mxGeometry relative="1" as="geometry" />
        </mxCell>
        <mxCell id="u4FmqP_CyHzq_SAG-YZG-14" style="edgeStyle=orthogonalEdgeStyle;rounded=0;orthogonalLoop=1;jettySize=auto;html=1;entryX=0;entryY=0.5;entryDx=0;entryDy=0;exitX=0;exitY=0.5;exitDx=0;exitDy=0;" edge="1" parent="1" source="u4FmqP_CyHzq_SAG-YZG-7" target="u4FmqP_CyHzq_SAG-YZG-3">
          <mxGeometry relative="1" as="geometry">
            <mxPoint x="225" y="570" as="sourcePoint" />
            <mxPoint x="260" y="205" as="targetPoint" />
            <Array as="points">
              <mxPoint x="110" y="570" />
              <mxPoint x="110" y="205" />
            </Array>
          </mxGeometry>
        </mxCell>
        <mxCell id="u4FmqP_CyHzq_SAG-YZG-15" value="滚动时域更新" style="edgeLabel;html=1;align=center;verticalAlign=middle;resizable=0;points=[];fontSize=14;rotation=90;horizontal=0;textDirection=vertical-lr;" vertex="1" connectable="0" parent="u4FmqP_CyHzq_SAG-YZG-14">
          <mxGeometry x="0.0093" y="1" relative="1" as="geometry">
            <mxPoint x="21" y="18" as="offset" />
          </mxGeometry>
        </mxCell>
        <mxCell id="u4FmqP_CyHzq_SAG-YZG-7" value="&lt;p&gt;&lt;span style=&quot;text-align: left;&quot;&gt;&lt;font style=&quot;font-size: 14px;&quot;&gt;&lt;b&gt;策略计算阶段&lt;/b&gt;&lt;/font&gt;&lt;/span&gt;&lt;/p&gt;&lt;p&gt;&lt;span style=&quot;text-align: left;&quot;&gt;&lt;font style=&quot;font-size: 14px;&quot;&gt;基于当前状态和预测的未来事件（如预约车辆到达），求解优化模型，生成充电桩分配方案。&lt;/font&gt;&lt;/span&gt;&lt;/p&gt;" style="rounded=1;whiteSpace=wrap;html=1;" vertex="1" parent="1">
          <mxGeometry x="255" y="520" width="300" height="100" as="geometry" />
        </mxCell>
        <mxCell id="u4FmqP_CyHzq_SAG-YZG-8" value="&lt;p style=&quot;text-align: left;&quot;&gt;&lt;span style=&quot;font-size: 14px;&quot;&gt;输出调度指令&lt;/span&gt;&lt;/p&gt;" style="rounded=1;whiteSpace=wrap;html=1;fillColor=#f8cecc;strokeColor=#b85450;" vertex="1" parent="1">
          <mxGeometry x="320" y="670" width="170" height="50" as="geometry" />
        </mxCell>
      </root>
    </mxGraphModel>
  </diagram>
</mxfile>
